<svg width="21" height="22" viewBox="0 0 21 22" fill="none" xmlns="http://www.w3.org/2000/svg">
<path d="M16.3333 10.1725C15.9167 10.1553 15.5739 10.012 15.305 9.74253C15.0361 9.47308 14.9017 9.1303 14.9017 8.71419C14.9017 8.29808 15.0361 7.9553 15.305 7.68586C15.5739 7.41642 15.9167 7.28197 16.3333 7.28253C16.75 7.28308 17.0928 7.41753 17.3617 7.68586C17.6306 7.95419 17.765 8.29697 17.765 8.71419C17.765 9.13142 17.6306 9.47419 17.3617 9.74253C17.0928 10.0109 16.75 10.1542 16.3333 10.1725ZM10.5 10.1725C10.0833 10.1553 9.74055 10.012 9.47167 9.74253C9.20278 9.47308 9.06833 9.1303 9.06833 8.71419C9.06833 8.29808 9.20278 7.9553 9.47167 7.68586C9.74055 7.41642 10.0833 7.28197 10.5 7.28253C10.9167 7.28308 11.2594 7.41753 11.5283 7.68586C11.7972 7.95419 11.9317 8.29697 11.9317 8.71419C11.9317 9.13142 11.7972 9.47419 11.5283 9.74253C11.2594 10.0109 10.9167 10.1542 10.5 10.1725ZM4.66667 10.1725C4.25 10.1553 3.90722 10.012 3.63833 9.74253C3.36944 9.47308 3.235 9.1303 3.235 8.71419C3.235 8.29808 3.36944 7.9553 3.63833 7.68586C3.90722 7.41642 4.25 7.28197 4.66667 7.28253C5.08333 7.28308 5.42611 7.41753 5.695 7.68586C5.96389 7.95419 6.09833 8.29697 6.09833 8.71419C6.09833 9.13142 5.96389 9.47419 5.695 9.74253C5.42611 10.0109 5.08333 10.1542 4.66667 10.1725ZM0.5 0.380859V17.0475H5.5V21.2142L11.3333 17.0475H20.5V0.380859H0.5Z" fill="white" fill-opacity="0.96"/>
</svg>
