<svg width="21" height="21" viewBox="0 0 21 21" fill="none" xmlns="http://www.w3.org/2000/svg">
<path d="M3.17398 0.85372L0.570088 6.9534C0.505794 7.09793 0.485734 7.24658 0.509909 7.39934C0.534083 7.5521 0.602492 7.6848 0.715134 7.79744L13.0835 20.1658C13.1961 20.2784 13.3288 20.3468 13.4816 20.371C13.6343 20.3952 13.783 20.3751 13.9275 20.3108L20.0272 17.7069C20.2844 17.5943 20.4371 17.4055 20.4855 17.1406C20.5338 16.8757 20.4615 16.6466 20.2687 16.4532L16.9411 13.1017C16.8125 12.989 16.6677 12.9168 16.5067 12.8849C16.3457 12.853 16.193 12.8772 16.0484 12.9574L12.8898 14.5244L6.35575 7.99033L7.92272 4.8317C8.00296 4.68717 8.02714 4.53441 7.99525 4.37342C7.96336 4.21242 7.89109 4.06764 7.77845 3.93905L4.42694 0.611461C4.23406 0.41858 4.00492 0.346314 3.73951 0.394663C3.47411 0.443011 3.28534 0.595773 3.17321 0.852948L3.17398 0.85372Z" fill="white" fill-opacity="0.96"/>
</svg>
