<svg width="17" height="17" viewBox="0 0 17 17" fill="none" xmlns="http://www.w3.org/2000/svg">
<g clip-path="url(#clip0_70_168)">
<path d="M8.49545 0.00513104C3.8038 0.00612654 0.00126758 3.81028 0.00226309 8.50193C0.00259492 10.1265 0.46879 11.7169 1.3455 13.0846L0.0238324 16.5137C-0.0465498 16.6961 0.0442402 16.901 0.226617 16.9714C0.267399 16.9871 0.310704 16.9952 0.354406 16.9951C0.394957 16.9953 0.435208 16.9884 0.473336 16.9746L4.01292 15.7109C7.99534 18.1912 13.2344 16.9735 15.7147 12.9911C18.1949 9.00861 16.9772 3.76957 12.9948 1.2893C11.6448 0.448496 10.0859 0.00357142 8.49545 0.00513104Z" fill="#4CAF50"/>
<path d="M12.5456 9.95135C12.5456 9.95135 11.6784 9.5266 11.1354 9.24345C10.521 8.92701 9.7989 9.51953 9.4591 9.85651C8.93025 9.65336 8.44723 9.34675 8.03831 8.95462C7.64612 8.54576 7.3395 8.06274 7.13642 7.53383C7.4734 7.19334 8.0645 6.47196 7.74948 5.8575C7.46985 5.31382 7.04158 4.44664 7.04158 4.44664C6.98149 4.32738 6.8594 4.25209 6.72584 4.25195H6.01794C4.98699 4.43002 4.23741 5.32955 4.24816 6.3757C4.24816 7.48711 5.57832 9.6222 6.47527 10.5198C7.37222 11.4174 9.50728 12.7469 10.6194 12.7469C11.6655 12.7577 12.5651 12.0081 12.7431 10.9771V10.2692C12.7432 10.1343 12.6666 10.011 12.5456 9.95135Z" fill="white"/>
</g>
<defs>
<clipPath id="clip0_70_168">
<rect width="17" height="17" fill="white"/>
</clipPath>
</defs>
</svg>
