<svg width="21" height="22" viewBox="0 0 21 22" fill="none" xmlns="http://www.w3.org/2000/svg">
<g clip-path="url(#clip0_71_78)">
<path d="M10.4944 0.387212C4.69881 0.388442 0.00156584 5.08769 0.00279558 10.8833C0.00320549 12.8901 0.579093 14.8547 1.66209 16.5442L0.02944 20.7802C-0.0575027 21.0055 0.0546497 21.2586 0.279938 21.3455C0.330317 21.365 0.38381 21.3749 0.437796 21.3748C0.487887 21.3751 0.53761 21.3665 0.584709 21.3495L4.95714 19.7885C9.87659 22.8524 16.3484 21.3482 19.4122 16.4287C22.4761 11.5092 20.9719 5.0374 16.0524 1.97354C14.3848 0.934898 12.459 0.385285 10.4944 0.387212Z" fill="white"/>
<path d="M15.497 12.6739C15.497 12.6739 14.4258 12.1492 13.755 11.7994C12.996 11.4085 12.104 12.1404 11.6843 12.5567C11.031 12.3058 10.4343 11.927 9.92916 11.4426C9.44469 10.9375 9.06593 10.3409 8.81506 9.68751C9.23133 9.2669 9.96151 8.37579 9.57237 7.61675C9.22694 6.94515 8.69791 5.87392 8.69791 5.87392C8.62367 5.7266 8.47286 5.63359 8.30787 5.63342H7.4334C6.15988 5.85338 5.23393 6.96458 5.24721 8.25687C5.24721 9.62979 6.89035 12.2673 7.99835 13.3761C9.10634 14.4849 11.7438 16.1272 13.1176 16.1272C14.4098 16.1405 15.521 15.2145 15.741 13.941V13.0666C15.7411 12.8998 15.6465 12.7475 15.497 12.6739Z" fill="#4E4E4E"/>
</g>
<defs>
<clipPath id="clip0_71_78">
<rect width="21" height="21" fill="white" transform="translate(0 0.380859)"/>
</clipPath>
</defs>
</svg>
