<svg width="166" height="83" viewBox="0 0 166 83" fill="none" xmlns="http://www.w3.org/2000/svg">
<g clip-path="url(#clip0_71_97)">
<path d="M17.7644 30.0165H8.03027V14.3361H17.7644V15.8337H9.70402V21.3615H16.5752V22.859H9.70402V28.5189H17.7644V30.0165Z" fill="white"/>
<path d="M29.1197 30.0165H20.4647V28.607L26.6531 20.7448C27.2404 19.9814 27.5341 19.2105 27.5341 18.4324C27.5341 17.5808 27.2918 16.8981 26.8073 16.3843C26.3228 15.8704 25.6548 15.6135 24.8032 15.6135C24.0104 15.6135 23.357 15.8484 22.8432 16.3182C22.3293 16.788 22.0724 17.5001 22.0724 18.4544H20.4867C20.4867 17.2065 20.8831 16.1861 21.6759 15.3932C22.4688 14.6004 23.5112 14.204 24.8032 14.204C26.0952 14.204 27.1377 14.5931 27.9305 15.3712C28.7233 16.1347 29.1197 17.1551 29.1197 18.4324C29.1197 19.0344 29.0243 19.5703 28.8334 20.0401C28.6426 20.5099 28.3196 21.0311 27.8644 21.6037L22.3807 28.607H29.1197V30.0165Z" fill="white"/>
<path d="M37.3076 10.4017V72.0858" stroke="white" stroke-width="0.75552" stroke-miterlimit="22.9256"/>
<path d="M1 39.4487H137" stroke="#E63C24" stroke-width="5.66976" stroke-miterlimit="22.9256"/>
<path d="M53.8285 63.1394H48.1904V54.0572H53.8285V54.9246H49.1599V58.1263H53.1397V58.9937H49.1599V62.272H53.8285V63.1394Z" fill="white"/>
<path d="M60.6097 63.1394H59.6912V59.2743C59.6912 58.7301 59.5552 58.3176 59.2831 58.037C59.0109 57.7479 58.6325 57.6033 58.1478 57.6033C57.6631 57.6033 57.2804 57.7479 56.9998 58.037C56.7276 58.3262 56.5916 58.7386 56.5916 59.2743V63.1394H55.6731V56.8635H56.5916V57.5523C57.0338 57.0421 57.6205 56.7869 58.3519 56.7869C59.0322 56.7869 59.5679 56.9825 59.9591 57.3737C60.3928 57.7989 60.6097 58.3814 60.6097 59.1213V63.1394Z" fill="white"/>
<path d="M67.4662 63.3307C67.4662 64.1216 67.2324 64.7679 66.7647 65.2696C66.297 65.7713 65.6592 66.0222 64.8513 66.0222C64.3921 66.0222 64.0051 65.9584 63.6905 65.8309C63.3844 65.7033 63.0612 65.4864 62.7211 65.1803L63.3206 64.5935C63.5757 64.8231 63.8053 64.9847 64.0094 65.0783C64.2135 65.1718 64.4856 65.2186 64.8258 65.2186C65.404 65.2186 65.8335 65.04 66.1141 64.6828C66.4032 64.3257 66.5478 63.8622 66.5478 63.2924V62.3102C66.1226 62.8545 65.5359 63.1266 64.7875 63.1266C64.1497 63.1266 63.6437 62.9395 63.2696 62.5654C62.7593 62.0551 62.5042 61.1835 62.5042 59.9504C62.5042 58.7173 62.7593 57.8457 63.2696 57.3354C63.6352 56.9698 64.1455 56.7869 64.8003 56.7869C65.5571 56.7869 66.1439 57.0591 66.5606 57.6033V56.8635H67.4662V63.3307ZM66.484 60.8178C66.5266 60.5712 66.5478 60.2821 66.5478 59.9504C66.5478 59.6187 66.5266 59.3296 66.484 59.083C66.45 58.8364 66.382 58.594 66.2799 58.3559C66.1779 58.1093 66.0163 57.9222 65.7952 57.7947C65.5826 57.6671 65.3147 57.6033 64.9916 57.6033C64.6685 57.6033 64.3963 57.6671 64.1752 57.7947C63.9541 57.9222 63.7925 58.1093 63.6905 58.3559C63.5885 58.594 63.5162 58.8364 63.4737 59.083C63.4396 59.3296 63.4226 59.6187 63.4226 59.9504C63.4226 60.2821 63.4396 60.5712 63.4737 60.8178C63.5162 61.0644 63.5885 61.311 63.6905 61.5576C63.7925 61.7957 63.9541 61.9786 64.1752 62.1061C64.3963 62.2337 64.6685 62.2975 64.9916 62.2975C65.3147 62.2975 65.5826 62.2337 65.7952 62.1061C66.0163 61.9786 66.1779 61.7957 66.2799 61.5576C66.382 61.311 66.45 61.0644 66.484 60.8178Z" fill="white"/>
<path d="M70.6803 63.1394H69.7619V56.8635H70.6803V63.1394ZM70.7441 55.0777H69.7109V54.0444H70.7441V55.0777Z" fill="white"/>
<path d="M77.9123 63.1394H76.9939V59.2743C76.9939 58.7301 76.8578 58.3176 76.5857 58.037C76.3136 57.7479 75.9351 57.6033 75.4504 57.6033C74.9657 57.6033 74.583 57.7479 74.3024 58.037C74.0303 58.3262 73.8942 58.7386 73.8942 59.2743V63.1394H72.9758V56.8635H73.8942V57.5523C74.3364 57.0421 74.9232 56.7869 75.6545 56.7869C76.3348 56.7869 76.8706 56.9825 77.2617 57.3737C77.6954 57.7989 77.9123 58.3814 77.9123 59.1213V63.1394Z" fill="white"/>
<path d="M84.9475 60.2438H80.7125C80.7125 60.9411 80.8698 61.4769 81.1845 61.851C81.4991 62.2252 81.9583 62.4123 82.5621 62.4123C82.9193 62.4123 83.2169 62.357 83.455 62.2465C83.7016 62.1359 83.9525 61.9531 84.2076 61.698L84.8327 62.2465C84.4925 62.5866 84.1523 62.8332 83.8122 62.9863C83.472 63.1394 83.0468 63.2159 82.5366 63.2159C81.6692 63.2159 80.9931 62.9523 80.5084 62.425C80.0322 61.8893 79.7941 61.0814 79.7941 60.0014C79.7941 58.9895 80.0237 58.2028 80.4829 57.6416C80.9421 57.0718 81.5714 56.7869 82.3708 56.7869C83.1786 56.7869 83.8079 57.0591 84.2586 57.6033C84.7178 58.1391 84.9475 58.8832 84.9475 59.8356V60.2438ZM84.0418 59.555C84.0078 59.0702 83.9397 58.7216 83.8377 58.509C83.5401 57.8797 83.0511 57.5651 82.3708 57.5651C81.6905 57.5651 81.2015 57.8797 80.9038 58.509C80.8018 58.7301 80.738 59.0787 80.7125 59.555H84.0418Z" fill="white"/>
<path d="M91.7116 60.2438H87.4766C87.4766 60.9411 87.6339 61.4769 87.9486 61.851C88.2632 62.2252 88.7224 62.4123 89.3262 62.4123C89.6834 62.4123 89.981 62.357 90.2191 62.2465C90.4657 62.1359 90.7166 61.9531 90.9717 61.698L91.5967 62.2465C91.2566 62.5866 90.9164 62.8332 90.5763 62.9863C90.2361 63.1394 89.8109 63.2159 89.3007 63.2159C88.4333 63.2159 87.7572 62.9523 87.2725 62.425C86.7963 61.8893 86.5582 61.0814 86.5582 60.0014C86.5582 58.9895 86.7878 58.2028 87.247 57.6416C87.7062 57.0718 88.3355 56.7869 89.1349 56.7869C89.9427 56.7869 90.572 57.0591 91.0227 57.6033C91.4819 58.1391 91.7116 58.8832 91.7116 59.8356V60.2438ZM90.8059 59.555C90.7719 59.0702 90.7038 58.7216 90.6018 58.509C90.3042 57.8797 89.8152 57.5651 89.1349 57.5651C88.4546 57.5651 87.9656 57.8797 87.6679 58.509C87.5659 58.7301 87.5021 59.0787 87.4766 59.555H90.8059Z" fill="white"/>
<path d="M97.8506 57.3737L97.1746 58.0625C97.0045 57.8925 96.8386 57.7734 96.6771 57.7054C96.524 57.6373 96.3284 57.6033 96.0903 57.6033C95.6396 57.6033 95.2739 57.7649 94.9933 58.088C94.7212 58.4027 94.5851 58.8024 94.5851 59.2871V63.1394H93.6667V56.8635H94.5851V57.6288C94.7552 57.3652 94.9976 57.1611 95.3122 57.0166C95.6353 56.8635 95.9798 56.7869 96.3454 56.7869C96.9577 56.7869 97.4594 56.9825 97.8506 57.3737Z" fill="white"/>
<path d="M99.954 63.1394H99.0356V56.8635H99.954V63.1394ZM100.018 55.0777H98.9846V54.0444H100.018V55.0777Z" fill="white"/>
<path d="M107.186 63.1394H106.268V59.2743C106.268 58.7301 106.132 58.3176 105.859 58.037C105.587 57.7479 105.209 57.6033 104.724 57.6033C104.239 57.6033 103.857 57.7479 103.576 58.037C103.304 58.3262 103.168 58.7386 103.168 59.2743V63.1394H102.249V56.8635H103.168V57.5523C103.61 57.0421 104.197 56.7869 104.928 56.7869C105.609 56.7869 106.144 56.9825 106.535 57.3737C106.969 57.7989 107.186 58.3814 107.186 59.1213V63.1394Z" fill="white"/>
<path d="M114.043 63.3307C114.043 64.1216 113.809 64.7679 113.341 65.2696C112.873 65.7713 112.236 66.0222 111.428 66.0222C110.968 66.0222 110.582 65.9584 110.267 65.8309C109.961 65.7033 109.638 65.4864 109.297 65.1803L109.897 64.5935C110.152 64.8231 110.382 64.9847 110.586 65.0783C110.79 65.1718 111.062 65.2186 111.402 65.2186C111.98 65.2186 112.41 65.04 112.69 64.6828C112.98 64.3257 113.124 63.8622 113.124 63.2924V62.3102C112.699 62.8545 112.112 63.1266 111.364 63.1266C110.726 63.1266 110.22 62.9395 109.846 62.5654C109.336 62.0551 109.081 61.1835 109.081 59.9504C109.081 58.7173 109.336 57.8457 109.846 57.3354C110.212 56.9698 110.722 56.7869 111.377 56.7869C112.133 56.7869 112.72 57.0591 113.137 57.6033V56.8635H114.043V63.3307ZM113.06 60.8178C113.103 60.5712 113.124 60.2821 113.124 59.9504C113.124 59.6187 113.103 59.3296 113.06 59.083C113.026 58.8364 112.958 58.594 112.856 58.3559C112.754 58.1093 112.593 57.9222 112.372 57.7947C112.159 57.6671 111.891 57.6033 111.568 57.6033C111.245 57.6033 110.973 57.6671 110.752 57.7947C110.53 57.9222 110.369 58.1093 110.267 58.3559C110.165 58.594 110.093 58.8364 110.05 59.083C110.016 59.3296 109.999 59.6187 109.999 59.9504C109.999 60.2821 110.016 60.5712 110.05 60.8178C110.093 61.0644 110.165 61.311 110.267 61.5576C110.369 61.7957 110.53 61.9786 110.752 62.1061C110.973 62.2337 111.245 62.2975 111.568 62.2975C111.891 62.2975 112.159 62.2337 112.372 62.1061C112.593 61.9786 112.754 61.7957 112.856 61.5576C112.958 61.311 113.026 61.0644 113.06 60.8178Z" fill="white"/>
<path d="M1 43.0798H137" stroke="white" stroke-width="5.66976" stroke-miterlimit="22.9256"/>
<path d="M33.6797 10.4017V72.0858" stroke="#E63C24" stroke-width="0.75552" stroke-miterlimit="22.9256"/>
<path d="M40.9424 14.0325H55.4663V35.818" stroke="white" stroke-width="5.66976" stroke-miterlimit="22.9256"/>
<path d="M30.0468 68.497H15.5234V46.7114" stroke="#E63C24" stroke-width="5.66976" stroke-miterlimit="22.9256"/>
<path d="M51.831 17.6638H48.2002V21.2946H51.831V17.6638Z" stroke="white" stroke-width="0.75552" stroke-miterlimit="22.9256"/>
<path d="M44.5732 21.2944H40.9424V24.9253H44.5732V21.2944Z" stroke="white" stroke-width="0.75552" stroke-miterlimit="22.9256"/>
<path d="M51.831 28.556H48.2002V32.1869H51.831V28.556Z" stroke="white" stroke-width="0.75552" stroke-miterlimit="22.9256"/>
<path d="M44.5732 28.556H40.9424V32.1869H44.5732V28.556Z" stroke="white" stroke-width="0.75552" stroke-miterlimit="22.9256"/>
<path d="M22.7861 61.2341H19.1553V64.865H22.7861V61.2341Z" stroke="#E63C24" stroke-width="0.75552" stroke-miterlimit="22.9256"/>
<path d="M22.7861 50.3416H19.1553V53.9724H22.7861V50.3416Z" stroke="#E63C24" stroke-width="0.75552" stroke-miterlimit="22.9256"/>
<path d="M30.0478 57.604H26.417V61.2348H30.0478V57.604Z" stroke="#E63C24" stroke-width="0.75552" stroke-miterlimit="22.9256"/>
<path d="M30.0478 50.3416H26.417V53.9724H30.0478V50.3416Z" stroke="#E63C24" stroke-width="0.75552" stroke-miterlimit="22.9256"/>
</g>
<defs>
<clipPath id="clip0_71_97">
<rect width="166" height="83" fill="white"/>
</clipPath>
</defs>
</svg>
