<svg width="166" height="83" viewBox="0 0 166 83" fill="none" xmlns="http://www.w3.org/2000/svg">
<g clip-path="url(#clip0_70_124)">
<path d="M17.7644 30.0164H8.03027V14.336H17.7644V15.8336H9.70402V21.3613H16.5752V22.8589H9.70402V28.5188H17.7644V30.0164Z" fill="#282828"/>
<path d="M29.1197 30.0164H20.4647V28.6069L26.6531 20.7447C27.2404 19.9812 27.5341 19.2104 27.5341 18.4323C27.5341 17.5807 27.2918 16.898 26.8073 16.3841C26.3228 15.8703 25.6548 15.6133 24.8032 15.6133C24.0104 15.6133 23.357 15.8482 22.8432 16.3181C22.3293 16.7879 22.0724 17.5 22.0724 18.4543H20.4867C20.4867 17.2063 20.8831 16.1859 21.6759 15.3931C22.4688 14.6003 23.5112 14.2039 24.8032 14.2039C26.0952 14.2039 27.1377 14.5929 27.9305 15.3711C28.7233 16.1345 29.1197 17.1549 29.1197 18.4323C29.1197 19.0342 29.0243 19.5701 28.8334 20.04C28.6426 20.5098 28.3196 21.031 27.8644 21.6036L22.3807 28.6069H29.1197V30.0164Z" fill="#282828"/>
<path d="M37.3076 10.4016V72.0856" stroke="#282828" stroke-width="0.75552" stroke-miterlimit="22.9256"/>
<path d="M1 39.4487H137" stroke="#E63C24" stroke-width="5.66976" stroke-miterlimit="22.9256"/>
<path d="M53.8285 63.1391H48.1904V54.0569H53.8285V54.9243H49.1599V58.1261H53.1397V58.9935H49.1599V62.2717H53.8285V63.1391Z" fill="#282828"/>
<path d="M60.6097 63.1391H59.6912V59.2741C59.6912 58.7298 59.5552 58.3174 59.2831 58.0368C59.0109 57.7476 58.6325 57.6031 58.1478 57.6031C57.6631 57.6031 57.2804 57.7476 56.9998 58.0368C56.7276 58.3259 56.5916 58.7383 56.5916 59.2741V63.1391H55.6731V56.8632H56.5916V57.5521C57.0338 57.0418 57.6205 56.7867 58.3519 56.7867C59.0322 56.7867 59.5679 56.9823 59.9591 57.3735C60.3928 57.7987 60.6097 58.3812 60.6097 59.121V63.1391Z" fill="#282828"/>
<path d="M67.4662 63.3305C67.4662 64.1213 67.2324 64.7676 66.7647 65.2694C66.297 65.7711 65.6592 66.0219 64.8513 66.0219C64.3921 66.0219 64.0051 65.9582 63.6905 65.8306C63.3844 65.7031 63.0612 65.4862 62.7211 65.1801L63.3206 64.5933C63.5757 64.8229 63.8053 64.9845 64.0094 65.078C64.2135 65.1716 64.4856 65.2183 64.8258 65.2183C65.404 65.2183 65.8335 65.0397 66.1141 64.6826C66.4032 64.3254 66.5478 63.862 66.5478 63.2922V62.31C66.1226 62.8542 65.5359 63.1264 64.7875 63.1264C64.1497 63.1264 63.6437 62.9393 63.2696 62.5651C62.7593 62.0549 62.5042 61.1832 62.5042 59.9502C62.5042 58.7171 62.7593 57.8454 63.2696 57.3352C63.6352 56.9695 64.1455 56.7867 64.8003 56.7867C65.5571 56.7867 66.1439 57.0588 66.5606 57.6031V56.8632H67.4662V63.3305ZM66.484 60.8176C66.5266 60.5709 66.5478 60.2818 66.5478 59.9502C66.5478 59.6185 66.5266 59.3294 66.484 59.0828C66.45 58.8361 66.382 58.5938 66.2799 58.3557C66.1779 58.1091 66.0163 57.922 65.7952 57.7944C65.5826 57.6669 65.3147 57.6031 64.9916 57.6031C64.6685 57.6031 64.3963 57.6669 64.1752 57.7944C63.9541 57.922 63.7925 58.1091 63.6905 58.3557C63.5885 58.5938 63.5162 58.8361 63.4737 59.0828C63.4396 59.3294 63.4226 59.6185 63.4226 59.9502C63.4226 60.2818 63.4396 60.5709 63.4737 60.8176C63.5162 61.0642 63.5885 61.3108 63.6905 61.5574C63.7925 61.7955 63.9541 61.9783 64.1752 62.1059C64.3963 62.2335 64.6685 62.2972 64.9916 62.2972C65.3147 62.2972 65.5826 62.2335 65.7952 62.1059C66.0163 61.9783 66.1779 61.7955 66.2799 61.5574C66.382 61.3108 66.45 61.0642 66.484 60.8176Z" fill="#282828"/>
<path d="M70.6803 63.1391H69.7619V56.8632H70.6803V63.1391ZM70.7441 55.0774H69.7109V54.0442H70.7441V55.0774Z" fill="#282828"/>
<path d="M77.9123 63.1391H76.9939V59.2741C76.9939 58.7298 76.8578 58.3174 76.5857 58.0368C76.3136 57.7476 75.9351 57.6031 75.4504 57.6031C74.9657 57.6031 74.583 57.7476 74.3024 58.0368C74.0303 58.3259 73.8942 58.7383 73.8942 59.2741V63.1391H72.9758V56.8632H73.8942V57.5521C74.3364 57.0418 74.9232 56.7867 75.6545 56.7867C76.3348 56.7867 76.8706 56.9823 77.2617 57.3735C77.6954 57.7987 77.9123 58.3812 77.9123 59.121V63.1391Z" fill="#282828"/>
<path d="M84.9475 60.2435H80.7125C80.7125 60.9409 80.8698 61.4766 81.1845 61.8508C81.4991 62.225 81.9583 62.412 82.5621 62.412C82.9193 62.412 83.2169 62.3568 83.455 62.2462C83.7016 62.1357 83.9525 61.9528 84.2076 61.6977L84.8327 62.2462C84.4925 62.5864 84.1523 62.833 83.8122 62.9861C83.472 63.1391 83.0468 63.2157 82.5366 63.2157C81.6692 63.2157 80.9931 62.952 80.5084 62.4248C80.0322 61.889 79.7941 61.0812 79.7941 60.0012C79.7941 58.9892 80.0237 58.2026 80.4829 57.6413C80.9421 57.0716 81.5714 56.7867 82.3708 56.7867C83.1786 56.7867 83.8079 57.0588 84.2586 57.6031C84.7178 58.1388 84.9475 58.8829 84.9475 59.8354V60.2435ZM84.0418 59.5547C84.0078 59.07 83.9397 58.7213 83.8377 58.5087C83.5401 57.8795 83.0511 57.5648 82.3708 57.5648C81.6905 57.5648 81.2015 57.8795 80.9038 58.5087C80.8018 58.7298 80.738 59.0785 80.7125 59.5547H84.0418Z" fill="#282828"/>
<path d="M91.7116 60.2435H87.4766C87.4766 60.9409 87.6339 61.4766 87.9486 61.8508C88.2632 62.225 88.7224 62.412 89.3262 62.412C89.6834 62.412 89.981 62.3568 90.2191 62.2462C90.4657 62.1357 90.7166 61.9528 90.9717 61.6977L91.5967 62.2462C91.2566 62.5864 90.9164 62.833 90.5763 62.9861C90.2361 63.1391 89.8109 63.2157 89.3007 63.2157C88.4333 63.2157 87.7572 62.952 87.2725 62.4248C86.7963 61.889 86.5582 61.0812 86.5582 60.0012C86.5582 58.9892 86.7878 58.2026 87.247 57.6413C87.7062 57.0716 88.3355 56.7867 89.1349 56.7867C89.9427 56.7867 90.572 57.0588 91.0227 57.6031C91.4819 58.1388 91.7116 58.8829 91.7116 59.8354V60.2435ZM90.8059 59.5547C90.7719 59.07 90.7038 58.7213 90.6018 58.5087C90.3042 57.8795 89.8152 57.5648 89.1349 57.5648C88.4546 57.5648 87.9656 57.8795 87.6679 58.5087C87.5659 58.7298 87.5021 59.0785 87.4766 59.5547H90.8059Z" fill="#282828"/>
<path d="M97.8506 57.3735L97.1746 58.0623C97.0045 57.8922 96.8386 57.7732 96.6771 57.7051C96.524 57.6371 96.3284 57.6031 96.0903 57.6031C95.6396 57.6031 95.2739 57.7647 94.9933 58.0878C94.7212 58.4024 94.5851 58.8021 94.5851 59.2869V63.1391H93.6667V56.8632H94.5851V57.6286C94.7552 57.365 94.9976 57.1609 95.3122 57.0163C95.6353 56.8632 95.9798 56.7867 96.3454 56.7867C96.9577 56.7867 97.4594 56.9823 97.8506 57.3735Z" fill="#282828"/>
<path d="M99.954 63.1391H99.0356V56.8632H99.954V63.1391ZM100.018 55.0774H98.9846V54.0442H100.018V55.0774Z" fill="#282828"/>
<path d="M107.186 63.1391H106.268V59.2741C106.268 58.7298 106.132 58.3174 105.859 58.0368C105.587 57.7476 105.209 57.6031 104.724 57.6031C104.239 57.6031 103.857 57.7476 103.576 58.0368C103.304 58.3259 103.168 58.7383 103.168 59.2741V63.1391H102.249V56.8632H103.168V57.5521C103.61 57.0418 104.197 56.7867 104.928 56.7867C105.609 56.7867 106.144 56.9823 106.535 57.3735C106.969 57.7987 107.186 58.3812 107.186 59.121V63.1391Z" fill="#282828"/>
<path d="M114.043 63.3305C114.043 64.1213 113.809 64.7676 113.341 65.2694C112.873 65.7711 112.236 66.0219 111.428 66.0219C110.968 66.0219 110.582 65.9582 110.267 65.8306C109.961 65.7031 109.638 65.4862 109.297 65.1801L109.897 64.5933C110.152 64.8229 110.382 64.9845 110.586 65.078C110.79 65.1716 111.062 65.2183 111.402 65.2183C111.98 65.2183 112.41 65.0397 112.69 64.6826C112.98 64.3254 113.124 63.862 113.124 63.2922V62.31C112.699 62.8542 112.112 63.1264 111.364 63.1264C110.726 63.1264 110.22 62.9393 109.846 62.5651C109.336 62.0549 109.081 61.1832 109.081 59.9502C109.081 58.7171 109.336 57.8454 109.846 57.3352C110.212 56.9695 110.722 56.7867 111.377 56.7867C112.133 56.7867 112.72 57.0588 113.137 57.6031V56.8632H114.043V63.3305ZM113.06 60.8176C113.103 60.5709 113.124 60.2818 113.124 59.9502C113.124 59.6185 113.103 59.3294 113.06 59.0828C113.026 58.8361 112.958 58.5938 112.856 58.3557C112.754 58.1091 112.593 57.922 112.372 57.7944C112.159 57.6669 111.891 57.6031 111.568 57.6031C111.245 57.6031 110.973 57.6669 110.752 57.7944C110.53 57.922 110.369 58.1091 110.267 58.3557C110.165 58.5938 110.093 58.8361 110.05 59.0828C110.016 59.3294 109.999 59.6185 109.999 59.9502C109.999 60.2818 110.016 60.5709 110.05 60.8176C110.093 61.0642 110.165 61.3108 110.267 61.5574C110.369 61.7955 110.53 61.9783 110.752 62.1059C110.973 62.2335 111.245 62.2972 111.568 62.2972C111.891 62.2972 112.159 62.2335 112.372 62.1059C112.593 61.9783 112.754 61.7955 112.856 61.5574C112.958 61.3108 113.026 61.0642 113.06 60.8176Z" fill="#282828"/>
<path d="M1 43.0798H137" stroke="#282828" stroke-width="5.66976" stroke-miterlimit="22.9256"/>
<path d="M33.6797 10.4016V72.0856" stroke="#E63C24" stroke-width="0.75552" stroke-miterlimit="22.9256"/>
<path d="M40.9424 14.0325H55.4663V35.818" stroke="#282828" stroke-width="5.66976" stroke-miterlimit="22.9256"/>
<path d="M30.0468 68.497H15.5234V46.7114" stroke="#E63C24" stroke-width="5.66976" stroke-miterlimit="22.9256"/>
<path d="M51.831 17.6636H48.2002V21.2944H51.831V17.6636Z" stroke="#282828" stroke-width="0.75552" stroke-miterlimit="22.9256"/>
<path d="M44.5732 21.2944H40.9424V24.9253H44.5732V21.2944Z" stroke="#282828" stroke-width="0.75552" stroke-miterlimit="22.9256"/>
<path d="M51.831 28.5559H48.2002V32.1867H51.831V28.5559Z" stroke="#282828" stroke-width="0.75552" stroke-miterlimit="22.9256"/>
<path d="M44.5732 28.5559H40.9424V32.1867H44.5732V28.5559Z" stroke="#282828" stroke-width="0.75552" stroke-miterlimit="22.9256"/>
<path d="M22.7861 61.2341H19.1553V64.865H22.7861V61.2341Z" stroke="#E63C24" stroke-width="0.75552" stroke-miterlimit="22.9256"/>
<path d="M22.7861 50.3416H19.1553V53.9724H22.7861V50.3416Z" stroke="#E63C24" stroke-width="0.75552" stroke-miterlimit="22.9256"/>
<path d="M30.0478 57.604H26.417V61.2348H30.0478V57.604Z" stroke="#E63C24" stroke-width="0.75552" stroke-miterlimit="22.9256"/>
<path d="M30.0478 50.3416H26.417V53.9724H30.0478V50.3416Z" stroke="#E63C24" stroke-width="0.75552" stroke-miterlimit="22.9256"/>
</g>
<defs>
<clipPath id="clip0_70_124">
<rect width="166" height="83" fill="white"/>
</clipPath>
</defs>
</svg>
