<svg width="16" height="14" viewBox="0 0 16 14" fill="none" xmlns="http://www.w3.org/2000/svg">
<path d="M0.551724 9.39089C0.247015 9.39089 0 9.6379 0 9.94261C0 10.2473 0.247015 10.4943 0.551724 10.4943H2.75862C3.06333 10.4943 3.31034 10.2473 3.31034 9.94261C3.31034 9.6379 3.06333 9.39089 2.75862 9.39089H0.551724Z" fill="#555555"/>
<path d="M0.551724 11.5978C0.247015 11.5978 0 11.8448 0 12.1495C0 12.4542 0.247015 12.7012 0.551724 12.7012H4.96552C5.27023 12.7012 5.51724 12.4542 5.51724 12.1495C5.51724 11.8448 5.27023 11.5978 4.96552 11.5978H0.551724Z" fill="#555555"/>
<path d="M2.10306 1.91692L2.02299 1.85066C2.24986 1.5384 2.49129 1.30873 2.80355 1.08186C3.77041 0.379395 5.14962 0.379395 7.90805 0.379395H9.37931C12.1377 0.379395 13.5169 0.379395 14.4838 1.08186C14.7961 1.30873 15.0185 1.51324 15.2453 1.82549L15.1529 1.91738L13.4552 3.61515C12.2181 4.85223 11.3287 5.73997 10.5616 6.32527C9.80716 6.90085 9.23621 7.13172 8.64358 7.13172C8.05094 7.13172 7.47999 6.90085 6.7256 6.32527C5.95848 5.73997 5.06908 4.85223 3.832 3.61515L2.40248 2.18563L2.10306 1.91692Z" fill="#555555"/>
<path d="M1.28736 7.00008C1.28736 5.05808 1.28736 3.79968 1.53249 2.88751L1.6433 2.98696L3.08159 4.42526C4.28234 5.62602 5.22335 6.56703 6.05627 7.20253C6.90882 7.853 7.71267 8.23516 8.64358 8.23516C9.57449 8.23516 10.3783 7.853 11.2309 7.20253C12.0638 6.56703 13.0048 5.62603 14.2055 4.42527L15.7524 2.8784C16 3.7913 16 5.05161 16 7.00008C16 9.75851 16 11.1377 15.2975 12.1046C15.0707 12.4168 14.7961 12.6914 14.4838 12.9183C13.5169 13.6208 12.1377 13.6208 9.37931 13.6208H7.90805C6.8573 13.6208 6.00667 13.6208 5.30274 13.5819C5.95277 13.4295 6.43678 12.846 6.43678 12.1495C6.43678 11.337 5.77807 10.6782 4.96552 10.6782H4.03306C4.15824 10.4618 4.22989 10.2106 4.22989 9.94261C4.22989 9.13006 3.57118 8.47135 2.75862 8.47135H1.29266C1.28736 8.02912 1.28736 7.54114 1.28736 7.00008Z" fill="#555555"/>
</svg>
